<svg id="vector" xmlns="http://www.w3.org/2000/svg" width="217.119" height="168.092" viewBox="0 0 217.119 168.092">
  <g id="Group_9" data-name="Group 9" transform="translate(0 0)">
    <path id="Path_10" data-name="Path 10" d="M197.107,11.5a21.029,21.029,0,0,0-20.7,17.51H134.073V11.5a3.5,3.5,0,0,0-3.5-3.5H88.548a3.5,3.5,0,0,0-3.5,3.5v17.51H42.708a21.011,21.011,0,1,0,0,7H85.046v17.51a3.5,3.5,0,0,0,3.5,3.5h42.023a3.5,3.5,0,0,0,3.5-3.5V36.015h42.338a21,21,0,1,0,20.7-24.513Z" transform="translate(-1 -8)" fill="#111"/>
    <path id="Path_11" data-name="Path 11" d="M24.011,93.915v3.5H6.5a3.5,3.5,0,0,0-3.5,3.5v42.023a3.5,3.5,0,0,0,3.5,3.5H48.525a3.5,3.5,0,0,0,3.5-3.5V100.919a3.5,3.5,0,0,0-3.5-3.5H31.015v-3.5a73.868,73.868,0,0,1,42.023-66.4V19.85A80.891,80.891,0,0,0,24.011,93.915Z" transform="translate(4.004 21.648)" fill="#111"/>
    <path id="Path_12" data-name="Path 12" d="M90.027,93.915v3.5h17.51a3.5,3.5,0,0,1,3.5,3.5v42.023a3.5,3.5,0,0,1-3.5,3.5H65.513a3.5,3.5,0,0,1-3.5-3.5V100.919a3.5,3.5,0,0,1,3.5-3.5h17.51v-3.5A73.868,73.868,0,0,0,41,27.516V19.85A80.891,80.891,0,0,1,90.027,93.915Z" transform="translate(99.077 21.648)" fill="#111"/>
  </g>
</svg>
