<svg id="archive-2" xmlns="http://www.w3.org/2000/svg" width="160.451" height="168.092" viewBox="0 0 160.451 168.092">
  <g id="Group_8" data-name="Group 8" transform="translate(0 0)">
    <path id="Path_7" data-name="Path 7" d="M155.811,12H10.641A7.638,7.638,0,0,0,3,19.641V134.249a7.638,7.638,0,0,0,7.641,7.641h145.17a7.638,7.638,0,0,0,7.641-7.641V19.641A7.638,7.638,0,0,0,155.811,12Zm-38.2,57.3a3.819,3.819,0,0,1-3.82,3.82H52.663a3.819,3.819,0,0,1-3.82-3.82V54.023a3.82,3.82,0,0,1,7.641,0V65.484h53.484V54.023a3.82,3.82,0,0,1,7.641,0Z" transform="translate(-3 26.203)" fill="#111"/>
    <path id="Path_8" data-name="Path 8" d="M133.069,6H10.82A3.822,3.822,0,0,0,7,9.82V21.281H136.889V9.82A3.822,3.822,0,0,0,133.069,6Z" transform="translate(8.281 9.281)" fill="#111"/>
    <path id="Path_9" data-name="Path 9" d="M106.507,2H14.82A3.822,3.822,0,0,0,11,5.82v3.82h99.327V5.82A3.822,3.822,0,0,0,106.507,2Z" transform="translate(19.562 -2)" fill="#111"/>
  </g>
</svg>
