<svg xmlns="http://www.w3.org/2000/svg" width="182.834" height="168.092" viewBox="0 0 182.834 168.092">
  <g id="home-52" transform="translate(-216 -5)">
    <g id="Group_7" data-name="Group 7" transform="translate(216 5)">
      <path id="Path_5" data-name="Path 5" d="M76.823,8.97,9,67.751v91.7a2.948,2.948,0,0,0,2.949,2.949H56.18a2.948,2.948,0,0,0,2.949-2.949V115.221H94.517v44.234a2.948,2.948,0,0,0,2.949,2.949H141.7a2.948,2.948,0,0,0,2.949-2.949v-91.7Zm17.7,79.71a2.948,2.948,0,0,1-2.949,2.949H62.081a2.948,2.948,0,0,1-2.949-2.949V65.089a2.948,2.948,0,0,1,2.949-2.949h29.49a2.948,2.948,0,0,1,2.949,2.949Z" transform="translate(14.591 5.688)" fill="#111"/>
      <path id="Path_6" data-name="Path 6" d="M182.817,81.393,94.349,4.721a2.948,2.948,0,0,0-3.863,0L51.132,38.828V15.8a2.95,2.95,0,0,0-2.949-2.949H33.438A2.95,2.95,0,0,0,30.489,15.8V56.719L2.017,81.393A2.95,2.95,0,1,0,5.88,85.852l86.537-75,86.537,75a2.95,2.95,0,1,0,3.863-4.459Z" transform="translate(-1 -3.999)" fill="#111"/>
    </g>
  </g>
</svg>
